<svg width="149" height="43" viewBox="0 0 149 43" fill="none" xmlns="http://www.w3.org/2000/svg">
<path d="M143.497 42.98H5.93136C2.90628 42.98 0.428711 40.561 0.428711 37.6075V5.37274C0.428711 2.41923 2.90628 0.000275402 5.93136 0.000275402H143.497C146.523 0.000275402 149 2.41923 149 5.37274V37.6075C149 40.561 146.523 42.98 143.497 42.98Z" fill="black"/>
<path d="M143.497 0.861212C146.045 0.861212 148.118 2.88529 148.118 5.37274V37.6075C148.118 40.095 146.045 42.119 143.497 42.119H5.93136C3.38363 42.119 1.31051 40.095 1.31051 37.6075V5.37274C1.31051 2.88529 3.38363 0.861212 5.93136 0.861212H143.497ZM143.497 0.000275402H5.93136C2.90628 0.000275402 0.428711 2.41923 0.428711 5.37274V37.6075C0.428711 40.561 2.90628 42.98 5.93136 42.98H143.497C146.523 42.98 149 40.561 149 37.6075V5.37274C149 2.41923 146.523 0.000275402 143.497 0.000275402Z" fill="#A6A6A6"/>
<path d="M52.6132 11.0069C52.6132 11.9041 52.3381 12.6227 51.796 13.1586C51.1729 13.7939 50.3612 14.1135 49.3666 14.1135C48.416 14.1135 47.6044 13.7885 46.9386 13.1478C46.2714 12.4978 45.9385 11.7 45.9385 10.745C45.9385 9.79004 46.2714 8.99223 46.9386 8.34754C47.6044 7.7015 48.416 7.37646 49.3666 7.37646C49.8399 7.37646 50.2911 7.47183 50.7216 7.64912C51.1509 7.82775 51.5003 8.06951 51.7534 8.36768L51.1784 8.93448C50.7368 8.42544 50.1356 8.17428 49.3666 8.17428C48.6733 8.17428 48.0721 8.41066 47.5618 8.88747C47.0569 9.36562 46.8038 9.9848 46.8038 10.745C46.8038 11.5052 47.0569 12.1298 47.5618 12.6079C48.0721 13.0793 48.6733 13.3211 49.3666 13.3211C50.1026 13.3211 50.7217 13.0793 51.21 12.6025C51.5319 12.2869 51.7149 11.8517 51.763 11.2957H49.3666V10.5194H52.5637C52.6022 10.6872 52.6132 10.8498 52.6132 11.0069Z" fill="white" stroke="white" stroke-width="0.16" stroke-miterlimit="10"/>
<path d="M57.6853 8.31551H54.6822V10.357H57.3895V11.1334H54.6822V13.1749H57.6853V13.966H53.832V7.52441H57.6853V8.31551Z" fill="white" stroke="white" stroke-width="0.16" stroke-miterlimit="10"/>
<path d="M61.2644 13.966H60.4143V8.31551H58.5723V7.52441H63.1078V8.31551H61.2644V13.966Z" fill="white" stroke="white" stroke-width="0.16" stroke-miterlimit="10"/>
<path d="M66.3906 13.966V7.52441H67.2394V13.966H66.3906Z" fill="white" stroke="white" stroke-width="0.16" stroke-miterlimit="10"/>
<path d="M71.0008 13.966H70.1575V8.31551H68.3086V7.52441H72.8496V8.31551H71.0008V13.966Z" fill="white" stroke="white" stroke-width="0.16" stroke-miterlimit="10"/>
<path d="M81.438 13.1371C80.7873 13.7885 79.9811 14.1135 79.0196 14.1135C78.0525 14.1135 77.2463 13.7885 76.5956 13.1371C75.9463 12.487 75.623 11.6892 75.623 10.745C75.623 9.80079 75.9463 9.00298 76.5956 8.35291C77.2463 7.7015 78.0525 7.37646 79.0196 7.37646C79.9756 7.37646 80.7818 7.7015 81.4325 8.35828C82.0873 9.01372 82.4106 9.80616 82.4106 10.745C82.4106 11.6892 82.0873 12.487 81.438 13.1371ZM77.2243 12.5972C77.7141 13.0793 78.3097 13.3211 79.0196 13.3211C79.7239 13.3211 80.3251 13.0793 80.8093 12.5972C81.2977 12.115 81.5453 11.4958 81.5453 10.745C81.5453 9.9942 81.2977 9.37502 80.8093 8.89284C80.3251 8.41066 79.7239 8.1689 79.0196 8.1689C78.3097 8.1689 77.7141 8.41066 77.2243 8.89284C76.736 9.37502 76.4883 9.9942 76.4883 10.745C76.4883 11.4958 76.736 12.115 77.2243 12.5972Z" fill="white" stroke="white" stroke-width="0.16" stroke-miterlimit="10"/>
<path d="M83.6035 13.966V7.52441H84.6353L87.8433 12.5342H87.8804L87.8433 11.2959V7.52441H88.6921V13.966H87.8062L84.4468 8.70904H84.4097L84.4468 9.95277V13.966H83.6035Z" fill="white" stroke="white" stroke-width="0.16" stroke-miterlimit="10"/>
<path d="M75.4136 23.3731C72.8287 23.3731 70.717 25.2937 70.717 27.9437C70.717 30.5722 72.8287 32.513 75.4136 32.513C78.0039 32.513 80.1156 30.5722 80.1156 27.9437C80.1156 25.2937 78.0039 23.3731 75.4136 23.3731ZM75.4136 30.7132C73.9952 30.7132 72.775 29.5702 72.775 27.9437C72.775 26.2957 73.9952 25.1729 75.4136 25.1729C76.8319 25.1729 78.0576 26.2957 78.0576 27.9437C78.0576 29.5702 76.8319 30.7132 75.4136 30.7132ZM65.1663 23.3731C62.5759 23.3731 60.4697 25.2937 60.4697 27.9437C60.4697 30.5722 62.5759 32.513 65.1663 32.513C67.7552 32.513 69.8628 30.5722 69.8628 27.9437C69.8628 25.2937 67.7552 23.3731 65.1663 23.3731ZM65.1663 30.7132C63.7466 30.7132 62.5222 29.5702 62.5222 27.9437C62.5222 26.2957 63.7466 25.1729 65.1663 25.1729C66.5846 25.1729 67.8048 26.2957 67.8048 27.9437C67.8048 29.5702 66.5846 30.7132 65.1663 30.7132ZM52.9724 24.774V26.7161H57.7226C57.5836 27.8013 57.2122 28.5992 56.6427 29.1552C55.9493 29.8268 54.8694 30.5722 52.9724 30.5722C50.0491 30.5722 47.76 28.2687 47.76 25.4146C47.76 22.5605 50.0491 20.2571 52.9724 20.2571C54.553 20.2571 55.7031 20.8601 56.5519 21.6418L57.9537 20.2732C56.7665 19.1665 55.1872 18.3163 52.9724 18.3163C48.9637 18.3163 45.5947 21.5008 45.5947 25.4146C45.5947 29.3285 48.9637 32.513 52.9724 32.513C55.1391 32.513 56.7665 31.8199 58.0458 30.5198C59.3568 29.2398 59.7654 27.44 59.7654 25.9868C59.7654 25.5355 59.7269 25.1205 59.6581 24.774H52.9724ZM102.835 26.2796C102.448 25.2575 101.255 23.3731 98.8259 23.3731C96.4185 23.3731 94.4142 25.2252 94.4142 27.9437C94.4142 30.5037 96.3979 32.513 99.057 32.513C101.207 32.513 102.448 31.233 102.958 30.4876L101.363 29.4493C100.83 30.2096 100.105 30.7132 99.057 30.7132C98.0157 30.7132 97.2687 30.2472 96.7899 29.3285L103.051 26.7994L102.835 26.2796ZM96.4515 27.8013C96.3979 26.0392 97.8533 25.1366 98.8961 25.1366C99.7132 25.1366 100.407 25.5355 100.638 26.1063L96.4515 27.8013ZM91.363 32.235H93.421V18.8038H91.363V32.235ZM87.9926 24.3912H87.9238C87.4616 23.8566 86.5798 23.3731 85.4628 23.3731C83.1186 23.3731 80.9754 25.3824 80.9754 27.9585C80.9754 30.5198 83.1186 32.513 85.4628 32.513C86.5798 32.513 87.4616 32.0254 87.9238 31.4748H87.9926V32.1302C87.9926 33.8776 87.0365 34.8164 85.4944 34.8164C84.237 34.8164 83.457 33.93 83.1351 33.1846L81.3454 33.9139C81.8613 35.1254 83.2273 36.6162 85.4944 36.6162C87.9073 36.6162 89.9433 35.2301 89.9433 31.8576V23.6511H87.9926V24.3912ZM85.6388 30.7132C84.2205 30.7132 83.0333 29.5541 83.0333 27.9585C83.0333 26.3481 84.2205 25.1729 85.6388 25.1729C87.0365 25.1729 88.1384 26.3481 88.1384 27.9585C88.1384 29.5541 87.0365 30.7132 85.6388 30.7132ZM112.47 18.8038H107.548V32.235H109.6V27.1459H112.47C114.749 27.1459 116.985 25.5355 116.985 22.9742C116.985 20.4142 114.744 18.8038 112.47 18.8038ZM112.523 25.2776H109.6V20.6721H112.523C114.056 20.6721 114.931 21.9145 114.931 22.9742C114.931 24.0138 114.056 25.2776 112.523 25.2776ZM125.211 23.3476C123.728 23.3476 122.186 23.9869 121.552 25.4039L123.373 26.1493C123.765 25.4039 124.486 25.1621 125.248 25.1621C126.313 25.1621 127.393 25.7867 127.409 26.8894V27.0304C127.038 26.8209 126.243 26.5106 125.265 26.5106C123.303 26.5106 121.304 27.565 121.304 29.5326C121.304 31.3324 122.911 32.4915 124.717 32.4915C126.098 32.4915 126.861 31.8831 127.339 31.1752H127.409V32.2135H129.392V27.0613C129.392 24.6799 127.57 23.3476 125.211 23.3476ZM124.963 30.7078C124.292 30.7078 123.357 30.3828 123.357 29.5702C123.357 28.5307 124.523 28.1317 125.533 28.1317C126.437 28.1317 126.861 28.3265 127.409 28.583C127.248 29.8268 126.152 30.7078 124.963 30.7078ZM136.614 23.6417L134.255 29.4641H134.185L131.746 23.6417H129.532L133.197 31.7783L131.106 36.306H133.25L138.898 23.6417H136.614ZM118.113 32.235H120.171V18.8038H118.113V32.235Z" fill="white"/>
<path d="M11.9127 8.10057C11.5894 8.43098 11.4023 8.94539 11.4023 9.61157V33.374C11.4023 34.0402 11.5894 34.5546 11.9127 34.885L11.9925 34.9575L25.6308 21.6472V21.3329L11.9925 8.02267L11.9127 8.10057Z" fill="url(#paint0_linear_8118_435)"/>
<path d="M30.1719 26.0864L25.6309 21.6474V21.3331L30.1774 16.8941L30.2792 16.9519L35.6636 19.943C37.2002 20.7919 37.2002 22.1887 35.6636 23.0429L30.2792 26.0287L30.1719 26.0864Z" fill="url(#paint1_linear_8118_435)"/>
<path d="M30.2795 26.0287L25.6312 21.4903L11.9131 34.8852C12.4235 35.409 13.2557 35.4721 14.2022 34.9483L30.2795 26.0287Z" fill="url(#paint2_linear_8118_435)"/>
<path d="M30.2795 16.9514L14.2022 8.03173C13.2557 7.51328 12.4235 7.57641 11.9131 8.10022L25.6312 21.4897L30.2795 16.9514Z" fill="url(#paint3_linear_8118_435)"/>
<defs>
<linearGradient id="paint0_linear_8118_435" x1="24.4199" y1="33.6214" x2="6.39249" y2="15.1572" gradientUnits="userSpaceOnUse">
<stop stop-color="#00A0FF"/>
<stop offset="0.0066" stop-color="#00A1FF"/>
<stop offset="0.2601" stop-color="#00BEFF"/>
<stop offset="0.5122" stop-color="#00D2FF"/>
<stop offset="0.7604" stop-color="#00DFFF"/>
<stop offset="1" stop-color="#00E3FF"/>
</linearGradient>
<linearGradient id="paint1_linear_8118_435" x1="37.6645" y1="21.4888" x2="11.0351" y2="21.4888" gradientUnits="userSpaceOnUse">
<stop stop-color="#FFE000"/>
<stop offset="0.4087" stop-color="#FFBD00"/>
<stop offset="0.7754" stop-color="#FFA500"/>
<stop offset="1" stop-color="#FF9C00"/>
</linearGradient>
<linearGradient id="paint2_linear_8118_435" x1="27.7519" y1="19.0232" x2="3.30528" y2="-6.01584" gradientUnits="userSpaceOnUse">
<stop stop-color="#FF3A44"/>
<stop offset="1" stop-color="#C31162"/>
</linearGradient>
<linearGradient id="paint3_linear_8118_435" x1="8.45996" y1="42.7903" x2="19.3765" y2="31.6093" gradientUnits="userSpaceOnUse">
<stop stop-color="#32A071"/>
<stop offset="0.0685" stop-color="#2DA771"/>
<stop offset="0.4762" stop-color="#15CF74"/>
<stop offset="0.8009" stop-color="#06E775"/>
<stop offset="1" stop-color="#00F076"/>
</linearGradient>
</defs>
</svg>
