<svg width="40" height="40" viewBox="0 0 40 40" fill="none" xmlns="http://www.w3.org/2000/svg">
<path fill-rule="evenodd" clip-rule="evenodd" d="M20.0003 38.3333C9.8751 38.3333 1.66699 30.1252 1.66699 20C1.66699 9.87478 9.8751 1.66667 20.0003 1.66667C30.1255 1.66667 38.3337 9.87478 38.3337 20C38.3337 30.1252 30.1255 38.3333 20.0003 38.3333ZM32.3328 28.5411C34.0147 26.1172 35.0003 23.1737 35.0003 20C35.0003 11.7157 28.2846 5 20.0003 5C11.7161 5 5.00033 11.7157 5.00033 20C5.00033 23.1737 5.98596 26.1172 7.66783 28.5411C9.54358 26.0634 13.9513 25 20.0003 25C26.0493 25 30.4571 26.0634 32.3328 28.5411ZM29.9415 31.2329C29.4537 29.4789 25.9493 28.3333 20.0003 28.3333C14.0514 28.3333 10.547 29.4789 10.0592 31.2329C12.7058 33.577 16.1869 35 20.0003 35C23.8138 35 27.2948 33.577 29.9415 31.2329ZM20.0003 10C15.9655 10 13.3337 12.9263 13.3337 16.6667C13.3337 22.379 16.2684 25 20.0003 25C23.6971 25 26.667 22.466 26.667 17C26.667 13.2026 24.024 10 20.0003 10ZM16.667 16.6667C16.667 20.4488 18.0307 21.6667 20.0003 21.6667C21.9632 21.6667 23.3337 20.4973 23.3337 17C23.3337 14.9174 22.0264 13.3333 20.0003 13.3333C17.8899 13.3333 16.667 14.693 16.667 16.6667Z" fill="white"/>
</svg>
